<?xml version="1.0" standalone="no"?>
<!DOCTYPE svg PUBLIC "-//W3C//DTD SVG 20010904//EN"
 "http://www.w3.org/TR/2001/REC-SVG-20010904/DTD/svg10.dtd">
<svg version="1.0" xmlns="http://www.w3.org/2000/svg"
 width="387.000000pt" height="387.000000pt" viewBox="0 0 387.000000 387.000000"
 preserveAspectRatio="xMidYMid meet">
<metadata>
Created by potrace 1.14, written by Peter Selinger 2001-2017
</metadata>
<g transform="translate(0.000000,387.000000) scale(0.100000,-0.100000)"
fill="#000000" stroke="none">
<path d="M3466 2663 c-3 -3 -16 -7 -28 -8 -27 -3 -101 -30 -139 -51 -14 -7
-29 -11 -33 -7 -3 3 -6 1 -6 -6 0 -7 -4 -10 -9 -7 -5 4 -11 3 -13 -2 -1 -4
-38 -31 -81 -60 -43 -30 -86 -61 -96 -70 -35 -33 -71 -62 -71 -56 0 4 -18 -12
-40 -35 -22 -22 -40 -39 -40 -36 0 3 -55 -50 -122 -118 -120 -121 -198 -206
-198 -218 0 -3 -99 -5 -219 -5 -143 1 -217 4 -213 11 6 10 9 14 42 54 11 13
20 27 20 30 0 5 17 28 60 78 5 7 10 15 10 18 0 4 6 12 13 20 15 16 34 39 72
90 38 51 63 80 101 121 17 18 31 34 29 36 -1 2 18 22 42 45 23 23 43 40 43 37
0 -2 8 4 18 14 25 23 23 57 -3 55 -33 -2 -65 -15 -65 -26 0 -6 -3 -7 -7 -4 -3
4 -13 1 -21 -5 -8 -7 -19 -13 -26 -14 -6 -2 -22 -6 -36 -9 -28 -7 -250 -8
-325 -1 -220 21 -476 27 -565 15 -46 -7 -124 -25 -150 -36 -8 -4 -17 -7 -20
-7 -16 -3 -97 -42 -108 -53 -7 -7 -18 -13 -24 -13 -5 0 -36 -28 -69 -62 -70
-74 -83 -90 -87 -109 -2 -7 -9 -17 -15 -21 -7 -4 -9 -8 -5 -8 4 0 0 -19 -8
-42 -19 -54 -25 -91 -26 -158 -1 -48 17 -125 32 -140 3 -3 21 -26 40 -52 19
-26 40 -48 47 -48 6 0 18 -8 25 -17 7 -10 20 -19 28 -21 8 -2 21 -10 27 -19 7
-9 13 -14 13 -10 0 4 9 3 21 -3 31 -17 36 -3 8 20 -70 59 -99 86 -99 92 0 4
-8 17 -18 28 -9 11 -17 24 -17 28 -1 4 -6 17 -14 30 -20 37 -20 127 1 196 26
89 29 96 39 96 5 0 9 7 9 15 0 15 106 125 121 125 5 0 18 8 29 18 11 9 24 17
28 17 4 1 17 6 29 13 12 6 30 13 40 15 10 2 25 7 33 10 26 10 93 26 145 33 50
8 108 8 475 3 181 -2 322 5 342 17 4 3 8 3 8 -1 0 -3 -15 -14 -32 -25 -18 -11
-30 -20 -26 -20 4 0 -5 -13 -20 -28 -15 -15 -30 -27 -33 -25 -3 1 -12 -9 -19
-22 -7 -14 -20 -25 -28 -25 -9 0 -13 -3 -9 -6 3 -3 -6 -18 -21 -33 -47 -48
-102 -111 -101 -117 0 -3 -10 -15 -23 -27 -19 -19 -74 -83 -113 -135 -5 -7
-22 -26 -37 -43 -15 -16 -24 -29 -20 -29 4 0 2 -4 -4 -8 -6 -4 -24 -25 -40
-47 -35 -48 -50 -68 -86 -106 -14 -16 -24 -29 -21 -29 2 0 -14 -18 -36 -40
-22 -22 -37 -40 -34 -40 4 0 -12 -18 -35 -40 -22 -22 -39 -40 -37 -40 3 0 -30
-35 -72 -79 -74 -74 -79 -78 -93 -60 -10 12 -22 17 -37 13 -13 -4 -21 -10 -18
-14 3 -5 -2 -15 -10 -23 -8 -9 -15 -20 -15 -26 0 -6 -10 -20 -22 -32 -13 -12
-16 -19 -8 -15 16 8 -4 -9 -46 -40 -15 -11 -32 -24 -38 -30 -17 -16 -80 -49
-88 -46 -5 1 -8 -1 -8 -6 0 -4 -12 -12 -28 -18 -28 -12 -64 -26 -72 -29 -3 -1
-17 -7 -32 -13 -23 -10 -80 -26 -173 -49 -40 -10 -257 -13 -298 -4 -23 6 -53
12 -67 14 -53 10 -170 65 -170 79 0 5 -4 7 -9 4 -10 -7 -154 128 -146 136 3 3
-1 11 -10 18 -8 7 -15 19 -15 26 0 8 -4 14 -9 14 -7 0 -38 84 -48 130 -28 129
20 314 103 406 19 20 34 39 34 43 0 8 63 51 71 48 4 -1 16 7 28 17 12 11 21
16 21 11 0 -4 6 -2 14 4 19 16 50 22 130 27 74 3 164 -20 221 -59 41 -28 115
-109 109 -119 -3 -4 -1 -8 4 -8 16 0 45 -126 39 -167 -7 -41 -14 -77 -17 -80
-2 -2 -3 -6 -4 -10 -7 -30 -19 -53 -27 -53 -6 0 -8 -4 -5 -9 4 -5 -7 -20 -23
-34 -17 -14 -27 -28 -24 -31 6 -6 -13 -10 -30 -7 -5 1 -6 -3 -2 -9 6 -9 -7
-14 -27 -11 -5 0 -8 -6 -8 -14 0 -19 20 -19 48 1 12 8 22 13 22 10 0 -3 19 16
43 42 122 134 123 349 2 478 -18 19 -30 34 -26 34 7 0 -27 21 -79 47 -19 10
-38 22 -41 26 -3 5 -9 8 -13 8 -3 -1 -7 -1 -8 0 -37 12 -237 21 -253 11 -10
-7 -17 -9 -46 -14 -9 -2 -28 -12 -42 -21 -15 -10 -27 -15 -27 -12 0 6 -16 -6
-51 -37 -10 -10 -19 -16 -19 -13 0 3 -11 -5 -25 -19 -14 -14 -25 -28 -25 -31
0 -3 -9 -15 -20 -27 -17 -18 -72 -119 -75 -138 0 -3 -7 -29 -14 -58 -28 -111
-15 -266 28 -351 11 -21 17 -41 14 -45 -4 -3 -1 -6 5 -6 6 0 13 -8 17 -19 3
-10 15 -29 25 -42 64 -76 86 -99 97 -99 6 0 18 -8 25 -19 17 -23 155 -95 206
-106 12 -3 32 -7 44 -10 13 -3 35 -8 50 -10 31 -5 106 -23 128 -32 8 -3 24 -8
35 -10 11 -2 21 -8 23 -13 2 -6 8 -10 13 -10 5 0 18 -8 28 -18 54 -48 78 -53
87 -16 8 32 -16 59 -72 79 -39 14 -39 14 -9 16 17 1 39 3 50 5 89 13 177 30
183 34 1 2 5 3 10 4 4 1 40 12 79 24 40 12 76 23 80 23 5 0 16 7 25 16 9 8 21
12 27 9 5 -3 11 -1 13 4 2 6 10 12 18 14 8 1 26 8 40 16 14 8 28 13 33 12 4
-1 7 2 7 8 0 5 7 10 15 10 8 0 15 5 15 11 0 5 5 7 10 4 6 -3 10 -1 10 4 0 6 6
11 14 11 8 0 16 3 18 8 2 4 26 22 53 39 28 18 60 41 73 53 12 11 22 19 22 16
0 -7 76 62 160 147 43 42 75 77 72 77 -4 0 10 15 31 33 20 19 37 37 37 40 0 7
35 50 82 99 24 25 92 50 198 73 11 3 29 7 41 10 12 2 42 7 67 10 26 3 54 7 62
10 37 11 140 14 140 4 0 -6 -4 -7 -10 -4 -5 3 -10 0 -10 -7 0 -8 -9 -20 -19
-28 -11 -7 -18 -17 -16 -20 3 -4 -7 -18 -20 -30 -14 -13 -25 -27 -25 -32 0
-12 -42 -71 -58 -81 -7 -5 -10 -12 -7 -16 2 -5 -2 -14 -10 -21 -8 -7 -15 -17
-15 -22 0 -6 -9 -22 -20 -38 -11 -15 -17 -29 -14 -32 2 -3 -2 -11 -11 -18 -8
-7 -15 -20 -15 -30 0 -9 -3 -20 -7 -24 -4 -3 -8 -14 -10 -24 -20 -108 -20
-113 -6 -148 7 -17 9 -35 5 -39 -4 -5 -1 -5 6 -1 7 4 12 2 12 -7 0 -39 121
-64 205 -42 66 17 218 108 238 141 4 8 15 14 23 14 8 0 13 4 10 8 -3 5 6 15
19 22 14 7 25 18 25 23 0 5 16 23 35 40 38 32 44 47 20 47 -8 0 -15 -5 -15
-12 0 -6 -2 -9 -5 -6 -3 3 -24 -12 -47 -33 -23 -21 -44 -37 -46 -35 -2 2 -22
-14 -45 -35 -23 -21 -47 -39 -53 -39 -6 0 -17 -7 -24 -15 -7 -8 -16 -12 -21
-9 -5 3 -9 2 -9 -3 0 -9 -54 -35 -85 -41 -87 -17 -111 9 -87 92 8 27 36 88 63
134 27 47 49 86 49 88 0 3 85 121 108 149 4 6 19 26 32 45 13 19 29 40 35 46
5 7 19 24 29 39 20 26 20 26 128 22 76 -2 108 0 108 8 0 6 -8 11 -17 11 -10 0
-43 4 -73 8 -30 5 -63 9 -72 10 -29 4 -29 12 -4 39 14 15 23 27 21 27 -5 0 38
51 73 85 12 12 22 27 22 33 0 6 10 18 22 26 12 9 19 16 14 16 -4 0 11 18 33
40 22 22 38 40 35 40 -9 0 207 212 241 237 68 50 120 81 127 77 4 -3 8 -1 8 3
0 27 177 58 230 40 8 -3 25 -8 38 -12 12 -4 22 -11 22 -16 0 -5 7 -9 15 -9 8
0 15 3 15 8 -1 13 -27 42 -38 42 -6 0 -15 7 -20 16 -7 13 -28 17 -95 19 -47 2
-88 1 -91 -2z m-943 -956 c-31 -35 -93 -126 -93 -137 0 -6 -4 -10 -10 -10 -5
0 -10 -6 -10 -14 0 -8 -7 -21 -15 -30 -9 -8 -15 -17 -14 -18 2 -2 -3 -19 -11
-38 -7 -19 -15 -51 -17 -70 -6 -56 -11 -59 -12 -8 -1 26 4 59 11 75 6 15 12
30 12 33 5 22 56 107 78 131 16 16 26 29 22 29 -3 0 11 17 30 38 20 20 36 41
36 46 0 5 3 6 7 3 3 -4 -3 -17 -14 -30z"/>
</g>
</svg>
